PathFileType	4	(X/Y/Z)	output.trc
DataRate	CameraRate	NumFrames	NumMarkers	Units	OrigDataRate	OrigDataStartFrame	OrigNumFrames
128	128	21	47	mm	128	1456	2911
Frame#	Time	C7			LSHO			RSHO			CLAV			T10			LUPA			RELB			LELB			LFRA			RFRA			RWRB			RWRA			RFIN			LWRB			LWRA			LFIN			RASI			LASI			RPSI			LPSI			RANK			LANK			LMMA			LHEE			LTOE			RMMA			RHEE			RTOE			RMT5			LMT5			RKNE			LKNE			LMFC			RMFC			RFM2			LFM2			RTP2			RTP3			RTA3			LTP2			LTP3			LTA3			LBHD			RBHD			RFHD			RGTR			LGTR			
		X1	Y1	Z1	X2	Y2	Z2	X3	Y3	Z3	X4	Y4	Z4	X5	Y5	Z5	X6	Y6	Z6	X7	Y7	Z7	X8	Y8	Z8	X9	Y9	Z9	X10	Y10	Z10	X11	Y11	Z11	X12	Y12	Z12	X13	Y13	Z13	X14	Y14	Z14	X15	Y15	Z15	X16	Y16	Z16	X17	Y17	Z17	X18	Y18	Z18	X19	Y19	Z19	X20	Y20	Z20	X21	Y21	Z21	X22	Y22	Z22	X23	Y23	Z23	X24	Y24	Z24	X25	Y25	Z25	X26	Y26	Z26	X27	Y27	Z27	X28	Y28	Z28	X29	Y29	Z29	X30	Y30	Z30	X31	Y31	Z31	X32	Y32	Z32	X33	Y33	Z33	X34	Y34	Z34	X35	Y35	Z35	X36	Y36	Z36	X37	Y37	Z37	X38	Y38	Z38	X39	Y39	Z39	X40	Y40	Z40	X41	Y41	Z41	X42	Y42	Z42	X43	Y43	Z43	X44	Y44	Z44	X45	Y45	Z45	X46	Y46	Z46	X47	Y47	Z47	
1456	11.36719	1434.11260	1412.15030	1424.71148	1283.73212	1305.40753	1298.19883	1113.38801	1120.71942	944.82881	964.00527	809.23149	814.59343	720.54462	814.01649	819.76246	722.99997	1067.48615	1041.08137	1197.93305	1196.38589	70.64018	71.01032	75.14849	43.49441	31.11344	72.65672	43.41617	35.41975	22.65334	26.15667	508.16465	522.18273	535.56764	524.82397	673.57774	676.82898	320.07376	379.78989	345.49618	311.55371	346.43854	339.38778	1323.65812	1723.65812	1353.65812	1323.65812	1723.65812	1493.65812	1523.65812	1723.65812	1493.65812	809.23149	814.01649	
1457	11.37500	1432.88881	1410.93113	1423.47982	1282.41079	1305.33636	1296.96252	1113.29966	1120.25501	944.25355	963.83444	809.12143	814.45715	720.42885	813.40305	818.63638	722.01128	1066.98213	1040.97854	1198.16159	1196.59264	70.64084	71.02577	75.49161	43.52225	31.13275	72.55379	43.45211	35.45946	22.64073	26.08832	508.26195	522.17315	535.41142	524.81417	673.67639	676.75346	320.14980	379.76523	345.61637	311.62675	346.54736	339.41291	1322.43326	1722.43326	1352.43326	1322.43326	1722.43326	1492.43326	1522.43326	1722.43326	1492.43326	809.12143	813.40305	
1458	11.38281	1431.60367	1409.73051	1422.23170	1281.02536	1305.25938	1295.60066	1113.19608	1119.71959	943.60743	963.65705	808.98475	813.97248	720.24561	812.87435	817.91964	721.09564	1067.09713	1040.90013	1198.35590	1196.79724	70.65163	71.00738	75.49538	43.51462	31.19820	72.55756	43.41959	35.47444	22.65113	26.10802	508.21423	521.94693	535.26868	524.86429	673.77801	676.71435	320.10061	379.87337	345.60559	311.62670	346.61133	339.43628	1321.18863	1721.18863	1351.18863	1321.18863	1721.18863	1491.18863	1521.18863	1721.18863	1491.18863	808.98475	812.87435	
1459	11.39062	1430.27849	1408.41166	1420.99378	1279.61352	1305.12381	1294.01274	1113.09099	1119.12293	942.99833	963.42028	808.45896	813.79331	720.04529	812.34395	817.26130	720.57597	1066.98541	1040.80793	1198.56867	1197.00027	70.66208	71.03012	75.20073	43.47978	31.10261	72.57267	43.39314	35.40817	22.67799	26.12805	508.27860	521.65550	535.17303	524.85399	673.92473	676.64045	320.08713	379.98402	345.75356	311.70192	346.58588	339.54742	1319.89465	1719.89465	1349.89465	1319.89465	1719.89465	1489.89465	1519.89465	1719.89465	1489.89465	808.45896	812.34395	
1460	11.39844	1428.92153	1407.16480	1419.75606	1278.19370	1304.99870	1292.94217	1112.97671	1118.54084	942.38038	963.23146	808.35043	813.52075	719.90750	811.77881	816.43175	719.68257	1066.82370	1040.66802	1198.70790	1197.20838	70.61024	70.94378	75.55192	43.43986	31.18832	72.62811	43.41669	35.46110	22.64026	26.07622	508.31184	521.46431	535.05279	524.92025	673.92538	676.49029	320.15523	380.00893	345.76425	311.63219	346.61660	339.59014	1318.61413	1718.61413	1348.61413	1318.61413	1718.61413	1488.61413	1518.61413	1718.61413	1488.61413	808.35043	811.77881	
1461	11.40625	1427.69928	1405.77450	1418.54889	1276.50120	1304.92791	1291.13281	1112.80395	1117.95385	941.77231	963.09916	808.25703	813.28721	719.72738	811.10277	815.54357	718.85542	1066.64837	1040.54062	1198.93566	1197.43151	70.63607	70.92496	75.50720	43.38942	31.15429	72.62165	43.39248	35.42373	22.66667	26.09424	508.25247	521.44066	534.82470	524.93581	673.99589	676.33173	320.12850	379.98570	345.95732	311.67442	346.53184	339.48018	1317.34089	1717.34089	1347.34089	1317.34089	1717.34089	1487.34089	1517.34089	1717.34089	1487.34089	808.25703	811.10277	
1462	11.41406	1426.40592	1404.41694	1417.30988	1275.30863	1304.77942	1289.82999	1112.68089	1117.31984	941.13124	962.84760	808.06147	813.00056	719.51160	810.48131	814.80504	718.17645	1066.55830	1040.31041	1199.13994	1197.57834	70.58886	70.89077	75.36259	43.40934	31.18863	72.63452	43.36987	35.43648	22.62105	26.14763	508.24243	521.23129	534.61663	524.95623	674.08364	676.18602	320.23033	380.03986	345.66431	311.56093	346.54533	339.31666	1316.04425	1716.04425	1346.04425	1316.04425	1716.04425	1486.04425	1516.04425	1716.04425	1486.04425	808.06147	810.48131	
1463	11.42188	1425.03624	1403.10205	1416.08208	1273.61279	1304.66811	1288.29698	1112.52956	1116.74807	940.42799	962.69084	807.81891	812.77868	718.99762	809.92219	814.08993	717.36419	1066.45237	1040.16353	1199.29947	1197.74934	70.60519	70.83790	75.12682	43.37134	31.02642	72.80729	43.34957	35.42585	22.62509	26.11535	508.24068	521.15064	534.44783	524.95930	674.07404	676.04137	320.15519	380.05673	345.56822	311.57000	346.54371	339.33038	1314.74013	1714.74013	1344.74013	1314.74013	1714.74013	1484.74013	1514.74013	1714.74013	1484.74013	807.81891	809.92219	
1464	11.42969	1423.71848	1401.65455	1414.84243	1272.18933	1304.50790	1286.71046	1112.36972	1116.13006	939.73888	962.45692	807.63101	812.51444	718.83360	809.17888	813.34368	716.56716	1066.30248	1039.11255	1199.50007	1197.90501	70.64901	70.82083	75.30647	43.35036	31.12235	72.69280	43.36764	35.47610	22.64701	26.10970	508.27573	521.08199	534.33089	524.99273	674.08638	675.98155	320.27524	380.12555	345.80279	311.59718	346.56885	339.47519	1313.40515	1713.40515	1343.40515	1313.40515	1713.40515	1483.40515	1513.40515	1713.40515	1483.40515	807.63101	809.17888	
1465	11.43750	1422.36832	1400.25067	1413.63064	1270.73763	1304.39301	1285.31258	1112.22450	1115.45056	939.04946	962.20649	807.42277	812.18263	718.65104	808.53710	812.46426	715.98406	1066.17956	1039.02880	1199.66786	1198.04510	70.60286	70.77777	75.82382	43.33457	30.98961	72.82441	43.35925	35.43353	22.62494	26.15152	508.31324	520.95962	534.25327	524.95038	674.06244	675.83586	320.32013	380.23324	345.77999	311.60939	346.53325	339.58149	1312.08321	1712.08321	1342.08321	1312.08321	1712.08321	1482.08321	1512.08321	1712.08321	1482.08321	807.42277	808.53710	
1466	11.44531	1421.22063	1398.92583	1412.35050	1269.42458	1304.27790	1283.60912	1112.06443	1114.78706	938.22877	961.97751	807.17034	811.90802	718.43525	807.89930	811.68578	715.27321	1066.04936	1038.66043	1199.84799	1198.26454	70.60539	70.82724	75.31354	43.32367	31.14202	72.78549	43.35946	35.47014	22.63376	26.32400	508.35224	520.90685	534.12858	524.96100	674.28010	675.83636	321.01739	380.24397	345.38562	311.62513	346.50409	339.55253	1310.83232	1710.83232	1340.83232	1310.83232	1710.83232	1480.83232	1510.83232	1710.83232	1480.83232	807.17034	807.89930	
1467	11.45312	1419.89093	1397.56075	1411.18515	1268.00098	1304.16929	1282.25747	1111.85668	1114.06930	937.49680	961.73719	806.98647	811.50093	718.18882	807.26890	810.84573	714.52914	1065.91959	1038.48228	1200.06184	1198.49776	70.58475	70.79026	75.38947	43.31000	31.05403	72.78101	43.34376	35.52165	22.66826	26.12129	508.33371	520.92467	534.06998	524.98630	674.23918	675.78960	320.33029	380.29998	345.87370	311.72808	346.48539	339.45919	1309.54561	1709.54561	1339.54561	1309.54561	1709.54561	1479.54561	1509.54561	1709.54561	1479.54561	806.98647	807.26890	
1468	11.46094	1418.73597	1396.25144	1410.02129	1266.55637	1304.05610	1281.00922	1111.60029	1113.36974	936.70799	961.51572	806.74304	811.20904	718.61832	806.42609	810.01768	713.55625	1065.81899	1037.96166	1200.25380	1198.66072	70.60982	70.77790	75.33415	43.31470	31.05379	72.91788	43.34553	35.50340	22.66218	26.16107	508.28933	520.92806	534.02293	525.00940	674.24093	675.75448	320.99271	380.26400	345.53750	311.63261	346.45366	339.42085	1308.33624	1708.33624	1338.33624	1308.33624	1708.33624	1478.33624	1508.33624	1708.33624	1478.33624	806.74304	806.42609	
1469	11.46875	1417.47200	1394.95462	1408.80213	1265.13150	1303.91878	1279.32432	1111.36490	1112.55519	935.96309	961.24399	806.51859	810.86585	717.62119	805.63435	809.15748	712.62713	1065.67985	1038.12973	1200.46881	1198.82879	70.57845	70.73304	75.26255	43.29193	31.14732	72.83947	43.29763	35.52868	22.65199	26.10989	508.23580	520.81059	533.88178	525.00428	674.87782	675.74141	320.44603	380.26277	346.13096	311.62871	346.43039	339.34709	1307.07625	1707.07625	1337.07625	1307.07625	1707.07625	1477.07625	1507.07625	1707.07625	1477.07625	806.51859	805.63435	
1470	11.47656	1416.22312	1393.68254	1407.68562	1263.81303	1303.80743	1278.27919	1111.16076	1111.77733	934.94857	960.94192	806.26286	810.49629	717.27970	804.79357	808.11970	711.56945	1065.56499	1038.32513	1200.65169	1198.96563	70.57830	70.63516	75.07506	43.21056	31.12152	72.84786	43.27850	35.51066	22.60631	26.14273	508.29157	520.79657	533.79290	525.05361	674.77582	675.68286	320.48149	380.25012	346.02709	311.64297	346.47260	339.25202	1305.86376	1705.86376	1335.86376	1305.86376	1705.86376	1475.86376	1505.86376	1705.86376	1475.86376	806.26286	804.79357	
1471	11.48438	1415.16220	1392.52682	1406.45513	1262.56459	1303.69422	1276.41167	1110.95171	1110.93224	934.17235	960.67349	805.98502	810.13588	717.58439	804.02453	807.24365	710.76948	1065.40642	1038.58701	1200.83847	1199.16894	70.52772	70.62682	75.26635	43.10530	31.00430	72.88963	43.23050	35.53571	22.61231	26.12355	508.27866	520.63581	533.68781	524.98320	674.65246	675.66707	320.52262	380.32122	346.29627	311.64561	346.49780	339.33931	1304.71472	1704.71472	1334.71472	1304.71472	1704.71472	1474.71472	1504.71472	1704.71472	1474.71472	805.98502	804.02453	
1472	11.49219	1413.95451	1391.30221	1405.33099	1261.36617	1303.56052	1275.01548	1110.73210	1110.15384	933.15498	960.40885	805.77339	809.75023	716.59039	803.24712	806.25228	709.72217	1065.27867	1038.80212	1201.01068	1199.32549	70.46759	70.59397	75.19951	43.00627	31.16367	72.93918	43.24832	35.52940	22.61541	26.11749	508.32536	520.57600	533.64320	525.02258	674.50097	675.61693	320.45119	380.45995	346.03537	311.70783	346.45281	339.44308	1303.52923	1703.52923	1333.52923	1303.52923	1703.52923	1473.52923	1503.52923	1703.52923	1473.52923	805.77339	803.24712	
1473	11.50000	1412.71055	1390.06841	1404.24754	1259.92208	1303.44771	1274.43858	1110.53334	1109.34654	932.36444	960.14700	805.52763	809.42294	716.22646	802.45163	805.29707	708.81142	1065.11944	1038.96930	1201.18434	1199.43410	70.49378	70.55639	75.20071	42.96470	31.24784	72.93894	43.21853	35.51436	22.60016	26.09072	508.28051	520.55209	533.54874	525.09584	674.46330	675.48990	320.53778	380.51144	346.34107	311.61315	346.44331	339.35435	1302.34217	1702.34217	1332.34217	1302.34217	1702.34217	1472.34217	1502.34217	1702.34217	1472.34217	805.52763	802.45163	
1474	11.50781	1411.68882	1388.74920	1403.08079	1258.61210	1303.34093	1272.73456	1110.31133	1108.47548	931.54020	959.95150	805.31183	809.08260	715.89825	801.53814	804.26650	707.71301	1064.96612	1039.14561	1201.35673	1199.55184	70.50871	70.49005	75.21327	42.93283	31.02230	72.96535	43.24394	35.54773	22.63526	26.09074	508.16625	520.54672	533.44677	525.11736	674.31736	675.45054	320.78032	380.40189	346.38537	311.60137	346.40448	339.34990	1301.17294	1701.17294	1331.17294	1301.17294	1701.17294	1471.17294	1501.17294	1701.17294	1471.17294	805.31183	801.53814	
1475	11.51562	1410.51368	1387.62886	1401.95639	1257.35092	1303.26958	1271.50560	1110.05996	1107.66790	930.45730	959.64376	805.12288	808.74969	715.54205	800.71494	803.24739	706.72887	1064.78733	1039.37605	1201.54570	1199.72372	70.53023	70.49252	75.35442	42.88884	31.17363	73.10651	43.23952	35.55464	22.65483	26.21183	508.19305	520.53960	533.37820	525.08592	674.11589	675.29536	320.73573	380.53206	346.12219	311.51988	346.34859	339.30669	1300.03298	1700.03298	1330.03298	1300.03298	1700.03298	1470.03298	1500.03298	1700.03298	1470.03298	805.12288	800.71494	
1476	11.52344	1409.28608	1386.45733	1400.83737	1256.10057	1303.15291	1270.08284	1109.86510	1106.84397	929.74110	959.41089	804.83223	808.34964	715.19880	799.92828	802.29740	705.77093	1064.61941	1039.62419	1201.69319	1199.91329	70.46677	70.37486	74.95656	42.81623	31.09941	73.02814	42.91839	35.55718	22.60389	26.18789	508.24851	520.47268	533.31792	525.06781	673.97435	675.37282	320.85443	380.63685	346.43294	311.57207	346.40499	339.37593	1298.86026	1698.86026	1328.86026	1298.86026	1698.86026	1468.86026	1498.86026	1698.86026	1468.86026	804.83223	799.92828	
